<svg xmlns="http://www.w3.org/2000/svg" version="1.0" viewBox="0 0 1024 1024"><g transform="translate(31.974 31.974)scale(6.1746)"><circle cx="77.742" cy="77.742" r="77.742" fill="none" stroke="url(#a)" stroke-width="2" data-gra="graph-name"/><g stroke-width="3050.6" mask="url(#b)"><circle cx="77.742" cy="77.742" r="72.191" fill="url(#a)" data-gra="graph-name"/></g></g><mask id="b"><circle cx="77.742" cy="77.742" r="72.191" fill="#fff" data-gra="graph-name"/><path d="M66.486 67.106q-.22 2.37-3.87 3.01-2.58.22-3.22 3.23-.65 3-4.73 4.94-4.3 3-3.22 12.24.64 4.08-1.94 4.08-1.93.22-1.72-2.57v-4.73q.43-2.15 0-5.16 0-2.79-2.14-3-2.58-.43-5.37.21-2.58.43-3.23-.64-.86-1.51 1.51-3.01 3.22-1.51 6.44-2.36 1.51-.65 1.29-1.51-.43-.86-2.15-.86-4.51-.21-8.81.65-2.57.43-3.86 1.72-2.15 1.93-3.44-.22-1.08-1.93 2.36-3.44 6.66-2.79 13.32-3.65h.22q2.58-.64 2.79-1.5.43-1.29-3.65-.65-3.22.22-3.44-1.5 0-1.29 1.93-2.37 1.51-.85 4.3-1.93 1.29-.64 1.93-.86 2.15-1.07 2.15-1.93-.43-.86-3.22-.65-3.87.86-7.3 3.44-1.72 1.29-1.72 2.36-.65 2.15-2.37 2.37-2.36-.65-1.07-3.44 3.87-7.09 10.31-13.75 2.15-2.15 3.87-2.15 4.08.43 4.08 2.79.43 2.58 1.93 2.15 3.87-.43 4.73 1.08.86 1.07-.86 4.72-1.07 2.58.65 3.01 2.57.43 2.14 4.3-.21 2.36 1.72 2.36 3.44.43 3.66 3.22m-13.75 4.95q1.07.86 2.57.21 1.29-.86 1.08-1.93-.86-.86-2.79-.22-1.51.86-.86 1.94m.64-7.95q.43.86 1.93.64 2.37-.43 1.72-1.93-.64-.86-2.58-.22-1.71.43-1.07 1.51m35.66-.43q3.01.21 3.23 3.65 0 1.5-.22 2.58-1.07 5.58 2.15 8.81 7.09 5.37 22.34 6.01 3.23 0 5.16-.86.43 0 1.08-.21 1.07-.65 2.57-.65 2.37 0 2.37 2.58 0 1.93-6.23 1.93-12.25-.21-23.42-3.86-3.22-1.29-5.37-1.29-4.3-.22-4.94 4.08-.65 3.01-2.8 2.79-1.5.22-1.5-1.93.21-4.94 1.5-9.02 0-.22.22-.86.21-1.08.21-1.72 0-.86-.64-.86-.65-.22-2.15 1.93-1.5 2.37-2.36 2.37-1.29 0-1.29-1.72 2.36-11.39 10.09-13.75m20.63-15.26q5.37.22 5.59 3.66.21 2.14-2.8 4.08-5.37 4.08-2.58 9.02 2.37 4.08 2.37 9.02.21 6.66-6.66 6.45-6.45 0-6.66-2.79.43-1.94 3.01-1.51 6.87.86 7.3-4.72-.21-3.66-3.01-6.23-1.72-2.15-4.08-1.94-2.15 0-4.3 1.29-1.93.65-2.79.65-1.07-.22-1.07-.86-.43-1.72 5.15-5.16 1.94-1.29 1.94-2.15 0-1.29-3.44-.86-2.36.22-2.58-1.29 0-.86 1.29-2.15 4.73-4.29 13.32-4.51m-23.63-.86q1.5-.21 1.29 1.94.21 3.22 2.36 6.44 1.29 1.51 1.29 3.23 0 3.22-3.01 3.22-3.65-.65-4.08-10.96 0-3.65 2.15-3.87m28.36 18.48q1.29 0 1.71 1.5 2.37 4.09 5.16 5.59 1.93.86 1.72 2.79-.21 2.37-2.36 2.58-5.16-1.29-7.52-10.74 0-1.5 1.29-1.72m3.86-11.17q1.72 0 1.72 2.15-1.29 5.37-6.66 7.09-1.29 0-1.29-1.51 1.94-6.66 6.23-7.73m-13.96 14.82q2.79 0 3.01 1.72-.43 2.58-3.87 2.79-2.79 0-4.3.65-1.07.43-1.72.43-1.07-.22-1.29-1.29 1.29-3.22 8.17-4.3m-1.72-4.94q2.15 0 2.36 1.72 0 1.5-3.43 2.36-3.01.86-3.66 1.51-1.5.86-2.15.86-1.28 0-1.28-1.51 1.28-3.86 8.16-4.94" data-gra="path-name"/><path d="M28.729 101.52q.2-.22.3-.43.09-.2.22-.3.13-.11.19-.11.07 0 .3.24.16.14.19.2.03.07.02.18l-.02.15h.48q.86-.01 1.19.29.16.18.04.4-.13.21-.84.93-.09.1-.15.17l-.08.11-.03.05q.04.03.61.09.52.05.78.16.25.11.46.36.13.17.15.24.03.08.03.32-.01.24 0 .29.02.05.09.06.12.04 1.05.08.89.06 1.08.14t.2.37q.03.43-.35.6-.12.05-.31.02-.19-.02-.35-.11-.22-.16-1.2-.19-.32-.01-.39.01-.06.02-.07.09-.02.14-.09.36-.08.23-.13.27-.05.06.04.22.07.12.07.17 0 .06-.1.23-.09.25-.3.33-.2.09-.43-.03-.14-.08-.58-.1l-.4-.02-.05.12q-.04.14-.03.85.02.72.06 1.04.05.28 0 .37-.04.1-.07.35l-.03.35q0 .11-.07.16-.07.06-.07.15 0 .25-.64.93-.15.16-.23.2-.09.04-.28.07-.23.03-.33-.03-.11-.05-.16-.22-.02-.1-.21-.28t-.29-.39q-.1-.22-.28-.35-.31-.25-.31-.35 0-.05.08-.06.07-.01.22.01.14.02.32.08.29.08.67.13l.4.03.07-.18q.11-.2.15-.84.03-.63 0-1.28-.05-.74-.06-.76-.02-.01-.5.12-.49.14-.57.17-.15.09-.38.04t-.35-.21q-.05-.06 0-.1.04-.04.09-.15.05-.12.17-.17.1-.02.66-.18.56-.15.76-.19l.15-.02-.03-.3q-.06-.36-.09-.45t-.12-.09q-.12 0-.24.05-.12.06-.38.08-.91.08-1.44.32-.48.2-.72.18t-.39-.28q-.07-.12-.01-.14t.06-.07q0-.2.61-.37.66-.19 1.13-.25.52-.06 1-.19.48-.12.53-.18.07-.09.07-.27.01-.19-.06-.21-.05-.04-.05-.14 0-.09-.04-.09-.06 0-.41.09t-.46.14q-.35.15-.57-.04-.27-.22.05-.44.15-.11.75-.32.61-.21.73-.21.26 0 .26-.12 0-.07.33-.48.52-.64.57-.84.03-.09.01-.11t-.12-.05q-.1-.02-.26-.15-.16-.12-.16-.18 0-.15-.25.08-.02.04-.07.08-.23.23-.91.59-.87.45-1.02.57-.09.08-.13.04-.02 0 .01-.04.02-.05.09-.14.08-.08.15-.16l.56-.64zm2.36 3.03q0-.3-.01-.37-.01-.08-.07-.1-.21-.07-.58.11-.14.06-.18.1-.05.04-.03.11l.09.36.05.28.35-.02q.35-.03.36-.04t.02-.43m-.12 1.41q.03-.18-.02-.2t-.4.02l-.23.04-.01.36q-.02.36.03.4.04.03.28.01.21-.03.24-.08.04-.05.11-.55m8.81-2.08q.07-.08.14-.07.06.01.35.08l.39.14v.29q0 .26-.09.38t-.33.14q-.2.03-.25-.01t-.16-.23q-.24-.53-.05-.72m2.24-3.21q.96-.11 1.24.01.14.06.24.28.08.19.08.24t-.11.19q-.11.15-.27.16-.16.02-.44-.06-.27-.09-.33-.06-.07.03-.03.25.02.2.03.23.03.03.48.02.46-.02.53-.07.11-.07.29.02.19.09.59.14 1 .1 1.35.25.13.05.27.05.13 0 .26.1t.22.1.28.1q.18.09.26.19.07.07.14.29.12.38-.2.61-.17.12-.43.09-.26-.02-.35-.09-.1-.06-.65.14-.54.21-.6.21-.16 0 .01-.27.06-.09.14-.18.38-.41.38-.53 0-.07-.24-.18-.23-.1-.56-.19-.44-.09-.52-.09t-.15.17-.13.17-.23.18-.15.24.4.26q.34.18.48.33.15.16.17.4.06.39-.3.39-.24 0-1.1-.82-.27-.27-.35-.27-.3 0-.06-.47.07-.14.18-.31.26-.32.26-.37 0-.02-.3-.05-.31-.03-.38-.01-.05.01-.08.42-.04.41-.04.9 0 .26-.02.37-.03.11-.17.31-.17.3-.21.3-.03 0-.09.14t-.06.21q0 .1.18.16.13.03.24.14.12.11.13.22 0 .07-.16.11-.15.04-.28.01-.09-.03-.18.11-.17.21-.19.3t.05.19q.12.15.11.27-.01.09-.08.11-.06.03-.34.04-.41.01-.45.05-.05.04.04.04t.11.08q.03.08.49.08.76 0 1.08.24.15.11.17 0 .03-.08.09-.55 0-.04.01-.06.05-.54.04-.63-.01-.08-.08-.1-.11-.02-.14-.11-.04-.1.02-.18.06-.07.29-.19t.31-.12q.1 0 .2-.06.1-.05.41 0 .3.06.57.08.53.05.74.2.22.16.17.42-.04.2-.08.28-.05.06-.11 1.15t-.06 2.37q0 1.52-.06 1.64-.07.14-.3.35-.22.2-.34.24-.09.05-.19-.04-.1-.08-.12-.24-.05-.14-.23-.32-.19-.18-.32-.21-.17-.02-.23-.13-.06-.12.04-.2.07-.06.3-.09.27-.03.33-.18t.11-.76q.02-.69-.02-.69-.02 0-.04.03-.1.09-.47.13l-.38.05-.09.3q-.08.39-.33.69-.25.29-.72.65-.78.55-1.09.56-.21 0-.26.12-.06.1-.19.11-.13 0-.21-.09-.27-.29-.24-1.18.01-.59-.05-.59-.11 0-.48.15-.37.14-.47.21-.12.09-.27.09-.15.01-.22-.05-.06-.06-.05-.19 0-.08.04-.13t.2-.11q.68-.33 1.09-.44.18-.03.21-.07.02-.05.03-.23l.01-.22-.24.08q-.15.06-.2.1-.05.03-.05.12t-.12.09q-.27 0-.69-.77-.26-.5-.29-.52-.04-.02-.04-.12 0-.11.13-.18.12-.06.3-.05.18 0 .56-.2t.59-.25q.21-.06.21-.1t-.23-.1q-.17-.05-.19-.09t-.02-.17q.01-.22 0-.41v-.18h-.3q-.21.03-.24 0-.04-.03-.04-.12 0-.1.03-.14t.17-.11l.22-.1v-.3q0-.29.03-.29t.22.06.23.17q.02.12.07.13.05 0 .24-.07.18-.04.36-.06l.19-.02.1-.42q.06-.3.1-.35.03-.05.14-.07l.16-.02.01-.98.01-.98-.36.03q-.62.07-.61.15.02.03.19.03.22 0 .28.09.06.08.02.33-.02.31-.16.42-.24.21-.4.01-.12-.12-.23-.34-.1-.23-.1-.36 0-.11-.03-.12-.03-.02-.11 0-.39.08-.67.3-.28.21-.28.4 0 .12-.08.37t-.15.41q-.07.14-.07.32 0 .39-.25.46-.22.09-.35.06t-.24-.19q-.12-.12-.14-.2-.02-.07.01-.29.02-.3-.02-.42t.1-.23q.13-.12.36-.59.48-.91.64-.93.09 0 .2.11.07.1.2.08t.75-.17q.58-.15 1.03-.2.45-.04.48-.09.03-.06.03-.25t-.07-.21q-.07-.03-.32.09l-.23.12-.21-.13q-.17-.1-.21-.15t-.04-.17q-.02-.12.01-.17.02-.04.13-.07.19-.08.67-.18.47-.11.79-.15m2.08 5.17q-.08-.07-.35-.09-.27-.03-.39.02-.11.06-.08.17.04.11.03.67 0 .55.02.6.01.05.19-.01.33-.14.5.1.09.1.1-.09.04-.15.04-.62 0-.69-.06-.75m-3.34.33q.03-.04.05-.18.01-.15-.06-.16-.06-.01-.3.06-.25.06-.27.09-.03.03 0 .23t.08.2.26-.1q.22-.09.24-.14m.78 1.38q0-.13-.38-.04-.2.04-.2.45 0 .15.09.15t.16-.06q.09-.07.21-.26.12-.18.12-.24m1.06.77q.05-.62.02-.62-.03-.04-.22.07-.18.11-.34.23-.25.23-.25.38 0 .13-.15.2-.14.07-.48.11l-.27.03v.22q0 .18.02.2.01.02.11-.01.13-.02.56-.07.32-.02.38-.02.07.01.14.09.08.1.12.26t0 .17l-.65.05q-.57.03-.68.1-.11.08-.09.42.03.31-.02.74-.05.42-.04.45.04.03.89-.81.47-.47.68-.95t.27-1.24m-2.45-.28q.01-.24-.02-.28-.05-.03-.3.05-.24.09-.41.22-.17.09-.19.14-.03.05 0 .18.03.19.05.23.06.1.51-.12l.34-.17zm3.97-.08q-.02-.08-.05-.09t-.16.05-.34.01q-.21-.02-.29.06-.08.09-.08.34 0 .18.02.21t.1 0q.59-.19.68.11l.08.11q.02-.02.04-.39t0-.41m12.12-6.86q.08-.04.12-.04.04.01.2.09.13.07.39.32.27.25.27.31 0 .03.07.1.07.05.07.23 0 .17-.07.35t-.05.25q.02.06-.05.57-.08.5-.06.52.03.04.44-.04t.64-.14q.39-.14.59-.06t.39.42q.19.35.17.63-.02.27-.21.27-.09 0-.24.1-.11.06-.19.06-.09 0-.39-.06-.77-.16-1.16-.05-.19.04-.24.83-.04.44-.09.56-.04.11-.04.39 0 .29.15.48.27.33.13.69-.04.17-.21.28-.16.11-.35.11-.13 0-.23.11-.09.13-.33.19-.23.07-.39 0-.15-.05-.36.03-.2.08-.27.08-.1 0-.34.11t-.29.2q-.06.08-.18.06-.09-.04-.24-.19-.15-.16-.15-.24 0-.1-.09-.25-.08-.15-.06-.95.03-.56 0-1.07-.03-.52-.07-.58-.04-.01-.31.07-.28.09-.37.15-.08.05-.09.15t.01.57q.05.65.13.88t.16.8q.07.56.12.64.04.08.16.41.13.34.33.47l.21.16.59-.09q.57-.08.9-.18.33-.09.72-.18.39-.08.51-.14.48-.19.94.35.17.18.23.54t-.04.57q-.05.15-.41.21t-.55-.05q-.56-.29-1.91.08-.37.11-.62.15-.24.03-.33.14-.15.24-.51-.02-.33-.25-.54-.6-.22-.35-.49-1.07-.32-.88-.46-1.99-.08-.64-.22-1l-.04-.11-.2.1q-.19.11-.39.28-.53.38-.72.38-.16 0-.5-.26-.34-.27-.34-.38 0-.09.57-.42t1.1-.55l.26-.12.02-.51q.06-.77.16-.77.05 0 .35.2.3.19.37.28.1.12.1.23 0 .12.06.15.06.01.43-.14t.45-.22q.08-.08-.21-1.64-.07-.41-.07-.55 0-.12.06-.17.07-.04.16 0 .1.05.23.06.46.05.66.44.09.15.15.52.07.37.04.49-.02.1.03.28.03.12.06.15t.13.03q.17 0 .53-.09.36-.08.51-.15.12-.06.16-.11t.04-.16q0-.19.07-.62t.07-.79.1-.92q.1-.55.16-.6m-.55 4.31.04-.2h-.24q-.29 0-.62.09-.33.1-.38.18-.05.09-.02.57.02.49.08.65.05.14.09.55.02.26.04.33.02.06.09.06.11 0 .3-.06.2-.06.2-.09 0-.05.07-.05.08 0 .08-.01t.07-.41q.08-.43.2-1.61m8.81 1.45q.07-.07.1-.06.03 0 .15.12.24.23.31.49.08.26.08.92 0 .2-.15.62-.14.42-.29.66-.15.23-.42.53l-.45.53q-.19.21-.39.34t-.34.27q-.18.17-.17.1.02-.1.32-.5.33-.44.67-1.33.27-.62.32-.84.04-.23.04-.81 0-.74.08-.79.07-.05.07-.11 0-.05.07-.14m3.07-5.95q0-.12.45.09.32.14.39.14.22 0 .38.22t.13.44q-.04.17-.16.26t-.29.31q-.18.22-.18.28t-.14.33q-.15.26-.15.32t-.15.35-.14.45-.07.33q-.07.17-.17.14t-.22.06l-.11.12-.23-.13q-.38-.19-.74-.14-.17.01-.2.04t-.02.11q.05.19.13.28.08.08.28.18.28.12.56.38.5.45 1.1.73.37.17.39.17.03 0 .27.16.16.11.8.35.64.25 1.03.34.23.09.68.31t.48.29q.03.08-.05.22-.05.08-.09.11-.05.03-.14.01-.36-.06-1.01.24-.31.16-.48.16-.22 0-.93-.39t-1.06-.71q-.13-.13-.38-.28-.25-.16-.29-.16-.05 0-.05 1.19.01 1.2-.02 1.49-.03.28-.07.92-.01.4-.03.54-.03.14-.11.25-.12.17-.12.21t-.09.04-.09.05-.11.05q-.21 0-.32-.6-.04-.2-.03-.29 0-.09.06-.25.08-.18.08-.52.01-.34 0-1.86l-.02-2.11-.31-.3q-.37-.35-.51-.33-.15.01-.46.4-.48.62-1.28 1.29-.33.27-.35.3-.01.03-.24.18-.22.15-.41.33-.19.17-.23.17-.06 0-.28.16l-.43.33q-.56.48-.67.48-.01 0 .08-.09.09-.1.26-.26t.36-.35q.72-.72.98-1.04.27-.32.38-.43.11-.12.2-.25.07-.13.45-.58.22-.26.45-.6.24-.34.47-.65.24-.31.22-.32-.02-.02-.27.07t-.31.12q-.15.12-.33.08t-.18-.22q-.01-.1-.11-.44-.09-.34-.15-.65-.05-.3-.22-.89-.18-.59-.21-.84-.02-.16.01-.22.02-.07.11-.15.21-.21.86-.45.2-.04 1.13-.05.92-.01 1.31.04.25.05.43.07t.27.01.09-.05.07-.04.07-.05m-2.34.99-.01-.53-.48-.01q-.8-.02-1.01.21-.14.16.01.73.08.23.11.41l.04.17.29-.13q.37-.18.94-.31l.12-.04zm1.55-.42q-.22-.08-.4-.11-.19-.03-.3-.03-.1 0-.1.04t.06.14q.07.1.08.42v.33h.19q.4 0 .42.38 0 .17-.08.24-.09.07-.31.1l-.18.02-.05.41q-.04.42-.02.44t.35-.02l.32-.04.02-.19q.04-.19.12-.24.06-.06.21-.36.15-.31.25-.57.07-.24.07-.48 0-.23-.09-.29-.08-.06-.56-.19m-1.66 2.35q.1-.22.1-.48 0-.27-.05-.31t-.31.01q-.26.06-.41.13-.17.1-.31.1-.13 0-.14.05 0 .05.09.33.1.28.14.44.04.17.08.17.05-.01.38-.13.22-.08.28-.13.07-.04.15-.18m19.12-1.69q.24-.02.32-.03t.2.09.18.1.06.03.2.19.2.19q.03.06.02.36-.02.22-.05.28-.04.07-.13.19-.33.31-.47.25-.09-.02-.24.09l-.18.1.02-.21q.04-.16-.02-.34-.05-.19-.12-.25-.05-.04-.18-.32t-.11-.29q.01-.04.02-.12.02-.22.05-.25.04-.04.23-.06m4.81-.64q.11-.06.3-.05.18 0 .27.1.07.07.16.07t.23.17q.1.09.12.13.01.04-.02.1-.06.1-.13.15-.06.04-.06.12 0 .05-.12.17t-.2.12q-.07 0-.19.09-.13.09-.2.16-.05.1-.15.17t-.27.26q-.16.18-.36.32-.16.1-.36.27-.19.16-.19.18 0 .01.12.01.19 0 .61.3.42.29.42.41 0 .05.05.05.04 0 .3-.26t.44-.47q.18-.22.3-.36.13-.15.3-.42t.16-.31l-.06-.14q-.02-.06.09-.11.1-.05.22-.05.08 0 .37.28t.32.38q.04.1-.06.19-.09.09-.17.21-.08.11-.32.3-.25.18-.64.59t-.63.54-.28.18q-.02.05.06.12t.3.16q.27.11.69.33.42.23.48.21.07-.01.42.27.38.34.44.44.06.09.06.45 0 .33-.02.4-.01.07-.15.21-.15.18-.29.21-.14.02-.38-.06-.18-.1-.24-.09-.07.02-.06-.1 0-.11-.35-.48-.36-.36-.36-.41t-.16-.18q-.17-.12-.2-.09t.02.26q.07.28.01.72-.05.44-.18.7-.15.3-.15.36 0 .16-.4.58l-.14.16.62.02q1.53.02 1.95-.07.23-.04 1.05-.06.82-.01.88.05.05.06.11.06t.06.08q0 .06-.1.19-.1.12-.15.12-.06 0-.18.18t-.25.24q-.1.03-.4.33-.31.3-.45.48-.05.07-.6.06-.54-.02-.88-.06l-.82-.11q-.48-.07-.77-.1t-.49-.1q-.19-.07-.48-.13-.33-.04-.79-.21-.45-.16-.71-.28-1.24-.69-1.63-.72-.49-.02-.61.3-.07.16-.1.16t-.12.13q-.03.11-.18.2t-.22.09q-.08 0-.18-.09t-.14-.21q-.06-.13-.06-.43 0-.18.03-.25.02-.07.17-.2.21-.19.45-.31.18-.12.28-.21.11-.09.2-.32l.12-.2-.11-.24q-.09-.22-.14-.29-.34-.54-.34-1.32v-.44l-.18.09q-.19.11-.19.17 0 .12-.25.12-.11 0-.28-.15-.18-.15-.2-.26-.04-.09.06-.12t.1-.08.16-.15q.16-.09.27-.19.11-.09.32-.2.21-.1.25-.19.05-.1.12-.1.06 0 .06-.02 0-.04.23-.12t.25-.04q.03.05.23.13.21.09.23.22t.07.15q.04.03.04.19t-.12.24q-.11.08-.11.13 0 .04-.14.22-.29.35-.17.68.06.2.06.27 0 .06.14.26.13.2.17.29t.06.09q.11 0 .35-.36.12-.19.25-.31.18-.21.78-.99.6-.79.79-1.09l-.2.05-.1.06q-.55.25-.56.11 0-.05.16-.24.16-.2.31-.32.08-.07.08-.14t.08-.1q.08-.02.08-.07t.09-.14q.09-.07.54-.66.45-.58.52-.7.02-.03-.04-.05-.03 0-.18.02-.31.04-.7.17t-.45.22q-.07.07-.1.02-.02-.05-.07-.03-.02.01-.23-.07-.2-.09-.33-.17-.12-.06.29-.29.12-.07.26-.12.35-.13 1.09-.35.75-.22.79-.27.05-.04.24-.06.2-.03.29-.11m-1.01 3.35q-.09-.1-.15-.09-.06.02-.04.15.03.11-.05.23-.07.12-.36.4l-.28.33q-.33.43-.87.89-.32.26-.36.3-.02.02-.37.26t-.4.25q-.02.01.03.12.06.11.14.24.09.13.19.24.14.12.14.34 0 .13.03.17.04.04.23.14.29.1.77.35.49.26.56.26t-.29-.36q-.44-.44-.32-.47.08-.01.4.14.28.12.5.15.14.01.2 0 .05-.01.16-.11.37-.37.54-.88.07-.26.13-.36.09-.17.12-.74.03-.56-.03-.62-.03-.02-.53.44-.51.47-.56.47t-.43.39-.6.51q-.21.11-.25.16-.01.02-.06.04-.06.02-.1.01-.04-.02-.04-.04 0-.04.14-.2.15-.17.15-.23 0-.05.12-.19.1-.1.31-.42t.27-.47q.05-.16.2-.34.39-.53.48-.74.03-.07.19-.35.12-.19.13-.25t-.04-.12m10.4 3.47q.01-.36.07-.5t.11-.14q.04 0 .18.13.13.13.13.18 0 .09.07.12.07.04.14-.02.08-.05.43-.15t.43-.1.22.16.14.23q0 .19-.44.34-.25.07-.37.15t-.29.1l-.16.02-.02.3q0 .3.03.61.02.31.06.31.05 0 .45-.32.41-.31.51-.31.21 0-.06.48-.04.05-.07.1-.22.33-.22.38 0 .15-.31.49-.15.15-.19.3-.05.16-.36.36-.3.21-.48.21-.08 0-.25-.21-.17-.2-.2-.33-.03-.16.06-.29.1-.13.07-.2-.03-.06.04-.1.11-.06.19-.7.07-.63.09-1.6m2.71-1.59q.06-.07.11-.05.04.02.19.18l.18.18-.03.81-.02.8.13-.17q.31-.33.78-1.08.09-.15.24-.3l.15-.16.19.09q.2.11.23.21.03.09.12.18t.07.3q-.05.3-.18.3-.05 0-.32.21t-.53.46q-.2.18-.56.35l-.33.18.02.28q.07.68.42.94.35.29 1.17.34.27.02.38.01t.24-.07q.35-.18.47-.65.03-.12.09-.24.05-.12.11-.19.05-.08.07-.05t.05.21q.04.17.13.57.1.39.1.51 0 .11.07.14.07.02.07.1 0 .09-.07.15t-.07.11q0 .06-.2.27-.23.22-.81.3-.37.04-.93-.08-.65-.13-.92-.24-.26-.11-.49-.36-.3-.31-.42-.6-.13-.28-.18-.77-.05-.42-.03-1.2.01-.78.08-1.22.07-.56.23-.75m-.59-3.72q.1-.08.14-.07.05.01.16.13.12.12.19.33.06.2 0 .26-.05.07-.03.19.01.09.03.11.01.02.09.01.19-.02.66 0 .46.01.62.05.26.08.35.14.09.05.14.18.07.16.01.26-.06.09-.09.21t-.12.4q-.1.27-.07.3t1.21.03q.78 0 1.01.02.22.01.31.07.23.14.33.65.04.18.03.22 0 .04-.07.1-.11.1-.45.12-.33.02-.71-.09-.37-.11-.82-.16-.48-.07-1.36-.07-.88.01-1.18.07-.33.06-.55.07-.47.01-.83.12-.13.04-.27.06-.63.11-.82.23-.18.08-.37.06-.13-.01-.17 0-.05.01-.06.11-.09.48-.24.92-.14.44-.2.53-.05.03-.05.1t-.13.24q-.12.17-.22.34-.19.34-.63.81-.44.46-.78.7-.29.2-.47.38-.17.19-.31.25l-.15.07.07-.12q.05-.14.23-.4l.47-.72q.29-.44.31-.46.13-.1.51-.83t.44-1q.19-.81.24-1.11.05-.28.1-.42.04-.15.11-.62.07-.48.13-.64l.12-.53q.19-.75.25-.91t.15-.15.25.24.14.33q-.03.08.02.1.04.03.04.46t-.04.49q-.03.05-.05.28-.01.24-.07.42-.07.19-.05.21.03.03.21-.02t.51-.12q.29-.04.33-.11.05-.07.07-.5.04-.31.01-.39t-.15-.08q-.14 0-.22-.08-.06-.08-.07-.11 0-.03.07-.11.07-.13.21-.16.14-.02.18-.07.04-.06.07-.44.02-.31.06-.42t.16-.11q.23 0 .23.47v.33l.22-.02q.25-.04.3-.08.06-.04.06-.17.01-.29.08-.54.06-.25.17-.34m.85 1.65q.03-.09 0-.11-.02-.01-.19-.01-.14 0-.19.02-.04.02-.07.1-.05.14-.09.52-.02.33.02.41.04.09.17.04.09-.03.12-.11.04-.08.1-.32.11-.4.13-.54m-1.23.46q.01-.36 0-.45 0-.09-.05-.09-.06 0-.18.05-.11.04-.13.05l-.03.55-.01.53h.13q.17 0 .21-.1.04-.09.06-.54m-.84-4.34q.1-.1.21-.1.11-.01.33.08.44.14.52.75.05.34-.02.53l-.07.2.43-.03.7-.06q1.26-.09 1.41-.03.11.04.21.21.06.12.06.17.01.06-.03.19-.06.18-.12.23-.05.07-.2.09-.16.01-.25-.03-.32-.17-1.79-.15-1.78.01-2.23.34-.35.26-.71.03-.21-.12-.16-.28t.33-.28q.12-.06.58-.14.46-.09.76-.12.35-.03.37-.06.03-.03-.09-.15-.12-.13-.12-.2 0-.06-.12-.28-.12-.23-.14-.5 0-.19.03-.27.02-.07.11-.14m11.72.48q.16-.01.2-.02.08-.02.28.07.2.08.26.15.16.21-.02.5-.11.18-.17.36t-.02.19q.35.12 1.1.87.66.65.99.92.32.27.38.33t.2.13q.15.08.39.26.29.22 1.11.64.82.41.95.41.12 0 .12.05 0 .07.47.19.53.17.55.34 0 .07-.12.09-.17.05-.48.17t-.36.17q-.06.07-.1.07t-.26.19q-.19.18-.28.2t-.29-.06q-.17-.11-.4-.18-.29-.09-.95-.54-.66-.46-1.08-.83-.07-.06-.11-.1-.04-.03-.07-.04t-.05.01q-.02.01-.04.06-.02.07-.13.12-.11.06-.2.02-.07-.02-.14.06-.06.06-.19.05-.12 0-.45-.06-.19-.04-.49-.01l-.3.02.2.13q.18.11.38.39.19.28.19.4 0 .17.41.17.21 0 .31.09.07.06.08.12t-.01.21q-.02.24-.1.35-.04.08-.1.09t-.35-.01q-.28-.02-.34-.01t-.06.1q-.01.14.01.95t.03.82q.02.02.55-.04.53-.05 1.48-.01.94.04 1.04.14.16.13.08.56-.08.42-.26.52-.19.09-.88-.07-.24-.06-.54-.08-.3-.01-1.27 0-1.46.02-1.95.1-.51.1-.6.13t-.22.16q-.12.13-.25.12-.12 0-.43-.13-.29-.15-.33-.23-.03-.09.12-.28.29-.3 1.23-.5.42-.1.49-.13.08-.04.13-.15.07-.17.14-.3.06-.13.08-.74.01-.61.04-.71.03-.07.01-.09t-.11-.02q-.16 0-.24.09-.2.16-.6-.04-.26-.11-.24-.17.01-.02.06-.02.04 0 .04-.08t.11-.19q.07-.07.28-.15.2-.07.3-.07.07 0 .25-.05l.17-.06v-1.19h-.11q-.26 0-.53.22-.14.14-.27.09-.23-.08-.39-.27-.03-.08-.01-.09.06-.02.06-.12 0-.11.16-.19.37-.17 1.09-.26.21-.04.35-.08t.5-.07q.67-.05.94-.15.2-.11.27-.11t.04-.06q-.03-.05-.21-.28-.21-.29-.24-.35-.07-.14-.27-.42-.13-.18-.13-.2 0-.07-.32-.44-.31-.38-.37-.38t-.28.26-.37.5q-.06.08-.34.39t-.41.42-.13.15-.44.48-.93.9q-.42.41-.49.49-.06.09-.24.22-.18.14-.21.18-.02.03-.27.2-.26.17-.36.23-.16.07-.3.07-.1 0-.1-.02.01-.05.49-.52.95-.92.95-1.03 0-.04.04-.04.03 0 .49-.6.47-.61.51-.75l.09-.11q.09-.12.29-.4.2-.27.2-.3 0-.02.18-.26t.3-.47.22-.39.33-.6q.23-.46.34-.6.12-.14.25-.16m11.77 4.21q.17-.07.61-.07t.54.07q.18.12.17.46-.02.33-.23.48-.24.19-.51.03-.1-.06-.42-.33-.31-.28-.31-.43t.15-.21m-1.31-2.66q.56-.04.6-.05.17-.01.35.23t.13.42q-.04.18-.21.23-.17.06-.66.04-.59-.01-.61.03-.03.05.06.08.08.04.28.25t.22.39q.01.12.04.16.02.04.14.08.12.03.25.19t.13.3q0 .11-.1.22-.11.12-.22.12t-.17.09q-.06.06-.14.45-.07.39-.12.79l-.04.3h.25q.2 0 .32.08.12.09.12.21 0 .08.06.13.09.06-.1.48-.1.19-.14.24-.05.05-.18.08-.3.05-.68.24-.37.19-1.14.67-.3.18-.49.21t-.43-.09q-.34-.14-.43-.51-.04-.15.2-.35t.82-.49l.67-.37.02-.57q.03-.56.08-.83.02-.25-.02-.29t-.22.03q-.15.06-.32.05-.18-.01-.24-.1-.07-.07-.07-.25l-.01-.18.48-.24q.42-.22.48-.32.06-.11.1-.69.01-.33-.03-.35-.01 0-.03.02-.23.1-.54.02-.3-.08-.35-.26-.04-.17.06-.3.11-.12.42-.28.54-.25 1.41-.31m4.8-.96q.22-.09.5 0 .28.08.49.29.17.16.2.28.03.11-.08.33-.11.27-.31.29-.21.01-.46-.24-.29-.3-.4-.59-.1-.29.06-.36m-1.63-.71q.06-.11.11-.11.08 0 .25.12.17.11.3.27l.18.21-.02.83q-.01.6-.01.71.01.12.08.12l1.12.01 1.03.02.11.12q.1.14.1.35 0 .15-.02.21-.02.07-.14.18-.16.15-.29.16-.12 0-.37-.13-.34-.17-.96-.23-.63-.07-.68.06-.03.08-.06.48-.02.4-.02.7 0 .32.08.46.15.19.3.1.15-.08.56-.6.33-.39.47-.51t.27-.1q.12.01.42.2t.37.26q.04.08.02.14t-.15.23q-.11.14-.22.22-.12.07-.48.2-.69.26-.84.32-.14.06-.15.12-.03.04.28.35t.58.52q.7.54 1.26.84.34.17.42.29.09.12.27.17t.35.17q.17.11.21.11.06 0 .14.09t.08.15q0 .09-.14.24t-.43.19q-.29.05-.66.16-.27.06-.35.07-.07 0-.19-.05-.17-.08-.23-.08t-.2-.17q-.14-.18-.4-.37l-.39-.3q-.21-.17-.57-.56-.36-.4-.48-.58-.18-.28-.22-.28-.08 0-.05 1.29v.05q.02 1.34.02 1.59-.01.24-.07.39-.13.27-.47.66-.33.39-.45.39-.09.01-.41-.32-.31-.33-.31-.43 0-.04-.23-.24-.17-.14-.36-.36-.18-.23-.18-.29 0-.11.21.06.14.08.37.16t.4.03q.18-.06.27-.35.08-.29.1-.9.03-.65.06-1.09.04-.44-.01-.44t-.3.29q-.26.29-.4.43-.14.13-.14.16 0 .1-.5.64-.19.22-.33.42-.16.26-.24.32-.07.05-.24.09-.22.03-.43-.06-.14-.05-.18-.1-.05-.06-.08-.2-.05-.28.03-.44t.38-.39q.44-.38.97-.85.53-.51 1.07-.95.03-.02.1-.08.32-.24.36-.41.05-.17.06-.96.03-.17.03-.28.02-.95-.04-.95-.14 0-.48.11-.33.1-.44.17-.19.12-.37.08-.1-.03-.14-.07-.04-.03-.07-.15-.03-.17-.01-.26.06-.16 1.02-.4.56-.15.58-.17.02-.03.04-.28.11-1.85.17-1.99" data-gra="path-slogan"/></mask><defs><linearGradient id="a" x1="0" x2="0" y1="1" y2="0"><stop offset="0" stop-color="#091f3f"/><stop offset="1" stop-color="#527895"/></linearGradient></defs></svg>